<svg xmlns="http://www.w3.org/2000/svg" xmlns:xlink="http://www.w3.org/1999/xlink" viewBox="0 0 1500 317"><style>.st2{fill:#fff}</style><path fill="#0d1325" d="M.5 0h1500v317H.5z" id="svg50" xmlns:cc="http://creativecommons.org/ns#" xmlns:dc="http://purl.org/dc/elements/1.1/" xmlns:rdf="http://www.w3.org/1999/02/22-rdf-syntax-ns#" xmlns:svg="http://www.w3.org/2000/svg"/><g id="Layer_2"><defs><path id="SVGID_1_" d="M381.1 70.5h215.5v176H381.1z"/></defs><clipPath id="SVGID_2_"><use xlink:href="#SVGID_1_" overflow="visible"/></clipPath><path d="M383.9 73.5h135.2l-27.7 31.4h-75.1v39.4h75.1l63-70.8h39.2l-74.5 85.2H383.9V73.5zm0 170.4h135.2l-27.7-31.4h-75.1v-39.4h75.1l63 70.8h39.2l-74.5-85.2H383.9v85.2z" clip-path="url(#SVGID_2_)" fill="#fffffd"/><path class="st2" d="M672.5 144.5v-34.6h24.6v7h-15.8v6.6h14.8v6.9h-14.8v7.2h15.8v7h-24.6zM735.4 144.5h-9.9l-6-11c-.8-1.3-1.9-1.9-3.6-1.9h-2.7v13h-8.9V110h16.5c4.2 0 7.3.9 9.5 2.7 2.1 1.8 3.2 4.4 3.2 7.9 0 2.6-.7 4.8-2.2 6.7-1.4 1.8-3.5 3-6.1 3.7 2 .4 3.6 1.7 4.8 3.9l5.4 9.6zm-11.7-20.7c.9-.6 1.3-1.6 1.3-3s-.4-2.5-1.3-3.1c-.9-.6-2.3-1-4.3-1h-6.3v8.1h6.3c2 0 3.4-.4 4.3-1zM741.5 144.5v-34.6h9v34.6h-9zM766.6 142.7c-2.7-1.5-4.7-3.6-6.1-6.2-1.4-2.7-2.1-5.8-2.1-9.3 0-3.5.7-6.6 2.1-9.3 1.4-2.7 3.5-4.7 6.1-6.2 2.7-1.5 5.8-2.2 9.4-2.2 2.3 0 4.4.3 6.6 1 2.1.7 3.8 1.6 5.2 2.7l-2.8 6.4c-2.8-2-5.8-3-8.7-3-2.8 0-5 .9-6.5 2.7-1.5 1.8-2.2 4.4-2.2 7.9s.7 6.1 2.2 7.9c1.5 1.8 3.6 2.7 6.5 2.7 3 0 5.9-1 8.7-3l2.8 6.4c-1.3 1.1-3.1 2.1-5.2 2.7-2.1.7-4.3 1-6.6 1-3.6 0-6.7-.7-9.4-2.2zM845.2 144.5h-10.7l-13.9-15.7v15.7h-9v-34.6h9v14.9l13.6-14.9h10.6l-15.3 16.4 15.7 18.2zM848.2 144.5v-34.6h24.6v7H857v6.6h14.8v6.9H857v7.2h15.8v7h-24.6zM880 144.5v-34.6h9v27.3h14.7v7.3H880zM910.5 144.5v-34.6h9v27.3h14.7v7.3h-23.7zM941.1 144.5v-34.6h24.6v7h-15.8v6.6h14.8v6.9h-14.8v7.2h15.8v7h-24.6zM1004.9 109.9l-14.6 19.2v15.4h-9v-15.4l-14.5-19.2H977l8.8 12 8.9-12h10.2z"/><g><path class="st2" d="M674.9 177.3c-1-.3-1.8-.7-2.5-1.3l.9-2c.7.5 1.5.9 2.3 1.2s1.6.4 2.6.4 1.8-.2 2.4-.5c.6-.4.8-.9.8-1.5s-.3-1-.8-1.3c-.5-.3-1.4-.6-2.6-.8-1.2-.3-2.2-.6-3-.9-.8-.4-1.4-.8-1.7-1.3-.4-.5-.6-1.2-.6-2.1 0-.9.2-1.6.7-2.3.5-.7 1.1-1.2 2-1.6.9-.4 1.9-.6 3-.6 1 0 2 .2 3 .5.9.3 1.7.7 2.3 1.3l-.9 2c-1.3-1-2.8-1.6-4.4-1.6-1 0-1.7.2-2.3.6-.6.4-.8.9-.8 1.6 0 .6.2 1 .7 1.3.5.3 1.3.6 2.5.9 1.2.3 2.3.6 3 .9.8.3 1.4.8 1.8 1.3.4.5.6 1.2.6 2 0 .9-.2 1.7-.7 2.3-.5.7-1.1 1.2-2 1.5-.9.4-1.9.5-3.1.5-1.1-.1-2.2-.2-3.2-.5zM690.4 176.8c-1.1-.6-1.9-1.5-2.4-2.6-.6-1.1-.9-2.5-.9-4s.3-2.9.9-4c.6-1.1 1.4-2 2.4-2.6 1.1-.6 2.3-.9 3.8-.9s2.7.3 3.7.9c1.1.6 1.9 1.5 2.4 2.6.6 1.1.9 2.5.9 4s-.3 2.9-.9 4c-.6 1.1-1.4 2-2.4 2.6-1.1.6-2.3.9-3.7.9-1.5 0-2.8-.3-3.8-.9zm6.9-2.6c.8-.9 1.1-2.3 1.1-4s-.4-3.1-1.1-4c-.8-.9-1.8-1.4-3.2-1.4-1.4 0-2.4.5-3.2 1.4-.8.9-1.1 2.3-1.1 4s.4 3.1 1.1 4 1.8 1.4 3.2 1.4c1.4 0 2.4-.5 3.2-1.4zM704.9 177.6v-14.8h9.7v2.2h-7v4h6.6v2.2h-6.6v6.4h-2.7zM721.6 177.6V165h-4.8v-2.2h12.4v2.2h-4.8v12.6h-2.8zM751.1 162.8h2.6l-5.2 14.8h-2.2l-3.7-10.6-3.7 10.6h-2.2l-5.2-14.8h2.7l3.7 11 3.9-11h1.9l3.8 11.1 3.6-11.1zM766.7 177.6l-1.5-3.5H758l-1.5 3.5h-2.7l6.7-14.8h2.2l6.7 14.8h-2.7zm-7.8-5.6h5.4l-2.7-6.3-2.7 6.3zM784.5 177.6h-2.9l-2.5-4.7c-.2-.4-.5-.8-.9-.9-.4-.2-.8-.3-1.3-.3h-2.1v5.9H772v-14.8h6.6c1.7 0 3 .4 3.8 1.1s1.3 1.8 1.3 3.2c0 1.1-.3 2.1-1 2.8-.6.7-1.5 1.2-2.7 1.4.8.2 1.4.8 1.9 1.7l2.6 4.6zm-4-8.6c.5-.4.7-1 .7-1.8s-.2-1.4-.7-1.8c-.5-.4-1.2-.6-2.2-.6h-3.5v4.7h3.5c.9 0 1.7-.2 2.2-.5zM787.7 177.6v-14.8h9.9v2.1h-7.3v4.1h6.8v2.1h-6.8v4.3h7.3v2.1h-9.9zM807.8 177.6v-14.8h9.9v2.1h-7.3v4.1h6.8v2.1h-6.8v4.3h7.3v2.1h-9.9zM831.2 162.8h2.5v14.8h-2l-7.9-10.3v10.3h-2.5v-14.8h2l7.9 10.3v-10.3zM850.4 169.6v7.1c-.7.3-1.5.6-2.4.8-1 .2-1.9.3-2.9.3-1.5 0-2.8-.3-4-.9-1.1-.6-2-1.5-2.6-2.6-.6-1.1-.9-2.5-.9-4.1 0-1.6.3-2.9.9-4 .6-1.1 1.4-2 2.5-2.6 1.1-.6 2.4-.9 3.9-.9 1 0 2 .2 2.9.5.9.3 1.7.7 2.3 1.3l-.9 2c-.7-.5-1.4-.9-2-1.1-.7-.2-1.4-.3-2.2-.3-1.5 0-2.7.5-3.5 1.4-.8.9-1.2 2.2-1.2 4 0 3.6 1.6 5.5 4.8 5.5 1 0 1.9-.1 2.9-.4v-3.7h-3.2V170h5.6zM854.4 177.6v-14.8h2.7v14.8h-2.7zM871.3 162.8h2.5v14.8h-2l-7.9-10.3v10.3h-2.5v-14.8h2l7.9 10.3v-10.3zM878.1 177.6v-14.8h9.9v2.1h-7.3v4.1h6.8v2.1h-6.8v4.3h7.3v2.1h-9.9zM891.6 177.6v-14.8h9.9v2.1h-7.3v4.1h6.8v2.1h-6.8v4.3h7.3v2.1h-9.9zM917.4 177.6h-2.9l-2.5-4.7c-.2-.4-.5-.8-.9-.9-.3-.2-.8-.3-1.3-.3h-2.1v5.9H905v-14.8h6.6c1.7 0 3 .4 3.8 1.1s1.3 1.8 1.3 3.2c0 1.1-.3 2.1-1 2.8-.6.7-1.5 1.2-2.7 1.4.8.2 1.4.8 1.9 1.7l2.5 4.6zm-4-8.6c.5-.4.7-1 .7-1.8s-.2-1.4-.7-1.8c-.5-.4-1.2-.6-2.2-.6h-3.5v4.7h3.5c1 0 1.7-.2 2.2-.5zM937.7 177.6l-1.6-1.6c-.6.6-1.3 1-2.1 1.3-.8.3-1.6.5-2.4.5-1 0-1.9-.2-2.6-.5-.8-.3-1.4-.8-1.8-1.4-.4-.6-.6-1.3-.6-2.1 0-.9.2-1.7.7-2.4s1.3-1.4 2.4-2c-.5-.6-.9-1.2-1.2-1.7-.2-.5-.4-1-.4-1.6 0-1 .4-1.9 1.1-2.5.7-.6 1.7-1 2.9-1 1.1 0 2 .3 2.7.9s1 1.4 1 2.3c0 .8-.2 1.4-.7 2-.4.6-1.1 1.2-2.1 1.8l2.9 3c.6-1.1.9-2.5.9-4h2.2c-.1 2.2-.6 4-1.6 5.6l3.3 3.3h-3zm-3-3.1l-3.6-3.7c-.7.4-1.2.9-1.5 1.3-.3.4-.5.9-.5 1.5 0 .7.2 1.2.7 1.6.5.4 1.1.6 1.9.6 1.2-.1 2.1-.5 3-1.3zm-3.7-9.6c-.3.3-.5.7-.5 1.2 0 .3.1.7.3 1 .2.3.5.7 1 1.2.7-.4 1.3-.8 1.6-1.2.3-.4.4-.7.4-1.2s-.1-.8-.4-1.1c-.3-.3-.6-.4-1.1-.4-.6 0-1 .2-1.3.5zM968.1 162.8h2.6l-5.2 14.8h-2.2l-3.7-10.6-3.7 10.6h-2.2l-5.2-14.8h2.7l3.7 11 3.9-11h1.9l3.8 11.1 3.6-11.1zM973.8 177.6v-14.8h9.9v2.1h-7.3v4.1h6.8v2.1h-6.8v4.3h7.3v2.1h-9.9zM998.3 171.2c.5.6.7 1.4.7 2.3 0 1.3-.5 2.2-1.4 3-.9.7-2.1 1.1-3.7 1.1h-6.7v-14.8h6.5c1.5 0 2.7.3 3.6 1 .9.7 1.3 1.6 1.3 2.8 0 .8-.2 1.5-.6 2-.4.6-1 1-1.7 1.3.9.3 1.6.7 2 1.3zm-8.4-2.2h3.4c1.9 0 2.8-.7 2.8-2.1 0-.7-.2-1.2-.7-1.6s-1.2-.5-2.1-.5h-3.4v4.2zm5.9 5.9c.4-.3.7-.9.7-1.6s-.2-1.3-.7-1.7-1.2-.5-2.1-.5h-3.8v4.4h3.8c.9 0 1.6-.2 2.1-.6zM1009.4 162.8h5.5c2.4 0 4.3.6 5.6 1.9s2 3.1 2 5.4-.7 4.2-2 5.5-3.2 2-5.6 2h-5.5v-14.8zm5.3 12.6c3.4 0 5.1-1.7 5.1-5.2s-1.7-5.2-5.1-5.2h-2.6v10.4h2.6zM1026.2 177.6v-14.8h9.9v2.1h-7.3v4.1h6.8v2.1h-6.8v4.3h7.3v2.1h-9.9zM1041.3 177.3c-1-.3-1.8-.7-2.5-1.3l.9-2c.7.5 1.5.9 2.3 1.2s1.6.4 2.6.4 1.8-.2 2.4-.5c.6-.4.8-.9.8-1.5s-.3-1-.8-1.3c-.5-.3-1.4-.6-2.6-.8-1.2-.3-2.2-.6-3-.9-.8-.4-1.4-.8-1.7-1.3-.4-.5-.6-1.2-.6-2.1 0-.9.2-1.6.7-2.3.5-.7 1.1-1.2 2-1.6.9-.4 1.9-.6 3-.6 1 0 2 .2 3 .5.9.3 1.7.7 2.3 1.3l-.9 2c-1.3-1-2.8-1.6-4.4-1.6-1 0-1.7.2-2.3.6-.6.4-.8.9-.8 1.6 0 .6.2 1 .7 1.3.5.3 1.3.6 2.5.9 1.2.3 2.3.6 3 .9.8.3 1.4.8 1.8 1.3.4.5.6 1.2.6 2 0 .9-.2 1.7-.7 2.3-.5.7-1.1 1.2-2 1.5-.9.4-1.9.5-3.1.5-1.2-.1-2.2-.2-3.2-.5zM1053.9 177.6v-14.8h2.7v14.8h-2.7zM1073.2 169.6v7.1c-.7.3-1.5.6-2.4.8-1 .2-1.9.3-2.9.3-1.5 0-2.8-.3-4-.9s-2-1.5-2.6-2.6c-.6-1.1-.9-2.5-.9-4.1 0-1.6.3-2.9.9-4 .6-1.1 1.4-2 2.5-2.6 1.1-.6 2.4-.9 3.9-.9 1 0 2 .2 2.9.5.9.3 1.7.7 2.3 1.3l-.9 2c-.7-.5-1.4-.9-2-1.1-.7-.2-1.4-.3-2.2-.3-1.5 0-2.7.5-3.5 1.4-.8.9-1.2 2.2-1.2 4 0 3.6 1.6 5.5 4.8 5.5 1 0 1.9-.1 2.9-.4v-3.7h-3.2V170h5.6zM1087.2 162.8h2.5v14.8h-2l-7.9-10.3v10.3h-2.5v-14.8h2l7.9 10.3v-10.3zM1094 177.6v-14.8h9.9v2.1h-7.3v4.1h6.8v2.1h-6.8v4.3h7.3v2.1h-9.9zM1119.9 177.6h-2.9l-2.5-4.7c-.2-.4-.5-.8-.9-.9-.3-.2-.8-.3-1.3-.3h-2.1v5.9h-2.7v-14.8h6.6c1.7 0 3 .4 3.8 1.1s1.3 1.8 1.3 3.2c0 1.1-.3 2.1-1 2.8-.6.7-1.5 1.2-2.7 1.4.8.2 1.4.8 1.9 1.7l2.5 4.6zm-4-8.6c.5-.4.7-1 .7-1.8s-.2-1.4-.7-1.8c-.5-.4-1.2-.6-2.2-.6h-3.5v4.7h3.5c.9 0 1.7-.2 2.2-.5z"/></g><g><path class="st2" d="M671 207.6v-14.8h9.9v2.1h-7.3v4.1h6.8v2.1h-6.8v4.3h7.3v2.1H671zM696.7 192.8h2.1v14.8h-2.4v-9.8l-3.9 7.4h-1.8l-3.9-7.3v9.7h-2.4v-14.8h2.1l5.1 9.7 5.1-9.7zM716 207.6h-3.3l-6.9-6.9v6.9h-2.7v-14.8h2.7v6.6l6.6-6.6h3.2l-7.2 7.1 7.6 7.7zM717.8 204.7h2.9v2.9h-2.9v-2.9zM724.5 192.8h5.5c2.4 0 4.3.6 5.6 1.9s2 3.1 2 5.4-.7 4.2-2 5.5-3.2 2-5.6 2h-5.5v-14.8zm5.3 12.6c3.4 0 5.1-1.7 5.1-5.2s-1.7-5.2-5.1-5.2h-2.6v10.4h2.6zM741.4 207.6v-14.8h9.9v2.1H744v4.1h6.8v2.1H744v4.3h7.3v2.1h-9.9zM765.7 192.8h2.8l-6.6 14.8h-2.2l-6.6-14.8h2.8l4.9 11.4 4.9-11.4z"/></g></g></svg>